/* XPM */
static char *result[] = {
/* columns rows colors chars-per-pixel */
"32 32 140 2 ",
"   c #B78B05",
".  c #B98D0B",
"X  c #BE951D",
"o  c #F9B600",
"O  c #FABE00",
"+  c #C09925",
"@  c #C19B29",
"#  c #C5A135",
"$  c #FFC400",
"%  c #FFC900",
"&  c #FEC50F",
"*  c #FEC511",
"=  c #FFCF16",
"-  c #FFC81B",
";  c #FAC726",
":  c #FFD827",
">  c #FBCD3D",
",  c #CDAE51",
"<  c #D0B25A",
"1  c #D2B765",
"2  c #D3B968",
"3  c #D7BE73",
"4  c #FFDE44",
"5  c #FBD14D",
"6  c #D9C27D",
"7  c #FFDC60",
"8  c #FFDB6F",
"9  c #FFED74",
"0  c #FFEA79",
"q  c #001D82",
"w  c #002485",
"e  c #002D8B",
"r  c #00338E",
"t  c #003690",
"y  c #003C92",
"u  c #003BA2",
"i  c #004397",
"p  c #004799",
"a  c #0D4D9C",
"s  c #104E9D",
"d  c #13509E",
"f  c #19529F",
"g  c #0040A3",
"h  c #0A4CA5",
"j  c #054AAA",
"k  c #1754A2",
"l  c #1A55A1",
"z  c #1D59A3",
"x  c #235CA5",
"c  c #285EA6",
"v  c #2760A7",
"b  c #2A61A7",
"n  c #3469AB",
"m  c #396DAE",
"M  c #376DB4",
"N  c #3E71B1",
"B  c #416EAF",
"V  c #4676B4",
"C  c #4877B5",
"Z  c #4B7AB5",
"A  c #4E7DBA",
"S  c #517DB7",
"D  c #2B69C1",
"F  c #5682BA",
"G  c #5B86BC",
"H  c #648CBF",
"J  c #5387D8",
"K  c #668EC3",
"L  c #618CCC",
"P  c #6C93C5",
"I  c #7396C5",
"U  c #7598C6",
"Y  c #799AC7",
"T  c #7B9DC9",
"R  c #6492DC",
"E  c #6996DF",
"W  c #749DDF",
"Q  c #DCC683",
"!  c #DEC989",
"~  c #E1CF97",
"^  c #E2D19C",
"/  c #FFE182",
"(  c #FDE28E",
")  c #FFEE8B",
"_  c #FFF281",
"`  c #FFF38D",
"'  c #FFF494",
"]  c #E5D6A6",
"[  c #E7D8AB",
"{  c #E8DBB2",
"}  c #EBDEB8",
"|  c #FFEAA2",
" . c #FFEFAE",
".. c #FFF1A0",
"X. c #EBE0BB",
"o. c #FFEEB4",
"O. c #83A2CB",
"+. c #88A6CF",
"@. c #8CA9CF",
"#. c #8EACD0",
"$. c #91ADD2",
"%. c #96B0D3",
"&. c #9DB4D5",
"*. c #9FB7D8",
"=. c #A4B9D9",
"-. c #87ABE6",
";. c #AABEE0",
":. c #AEC2DD",
">. c #B0C0D4",
",. c #B3C4DE",
"<. c #B7C8E0",
"1. c #BCCBE2",
"2. c #AEC8F6",
"3. c #BAD0FD",
"4. c #E0DED2",
"5. c #EEE4C5",
"6. c #FFF0C1",
"7. c #F4EEDD",
"8. c #FFF4D2",
"9. c #C3D1E5",
"0. c #C6D4EF",
"q. c #CBD6E8",
"w. c #CDD9EA",
"e. c #D0D7E9",
"r. c #D1DBEB",
"t. c #D9DFED",
"y. c #DAE2EE",
"u. c #DFEDFF",
"i. c #FFFFE4",
"p. c #E2E7F1",
"a. c #E7EBF4",
"s. c #EBEDF5",
"d. c #E1ECFF",
"f. c #EEF1F7",
"g. c #E6F0FF",
"h. c #F0F2F7",
"j. c #FDFCF2",
"k. c #F4F5FA",
"l. c #F1F9FF",
"z. c #FFFFFF",
/* pixels */
"z.z.z.z.z.z.z.z.z.z.[ z.z.z.z.z.z.z.z.z.z.] z.z.z.z.z.z.z.z.z.z.",
"z.z.z.z.z.z.z.z.z.7.. ! z.z.z.z.z.z.z.z.}   { z.z.z.z.z.z.z.z.z.",
"z.z.z.z.z.z.z.X.. X # @   3 z.z.z.z.^   + # +   ~ z.z.z.z.z.z.z.",
"z.z.z.z.z.z.z.z.j.X + X ~ z.z.z.z.z.z.5.X + X 5.z.z.z.z.z.z.z.z.",
"z.z.z.z.z.z.z.z.] , 5.6 < z.z.z.z.z.z.Q 1 5.2 6 z.z.z.z.z.z.z.z.",
"z.z.z.z.z.z.z.z.z.z.z.z.z.z.,.x a :.z.z.z.z.z.z.z.z.z.z.z.z.z.z.",
"z.z.z.z.z.z.z.z.z.z.z.k.U i U t.k.Y i I k.z.z.z.z.z.z.z.z.z.z.z.",
"S m @.9.r.y.q.:.O.C f B 9.t.N r r H k.q.N d Z +.,.y.s.f.y.,.G x ",
"C &.9.#.U I T &.w.t.1.K i r i i i i r a T q.r.,.O.F V V F O.,.f ",
"C r.a z m N m z y r t i p p p p p p p i y r w s f.z.z.z.z.z.k.d ",
"C r.s i i i i p p p p p p p p p p p p i y y <.z.z.z.z.z.z.z.h.d ",
"C r.s i p p p p p p p p p p p p p p i e Y z.z.z.z.z.z.z.z.z.h.a ",
"V r.d i p p p p p p p p p p p p i r m z.z.z.w Z q.z.z.z.z.6.k.a ",
"V r.d i p p p p p p p p p p p r p w.z.O.9.z.Z A m r l.z.; O l.s ",
"V r.s i p p p p p p p p p y r $.z.z.c a #.k.9.w z.z.8 o O * l.s ",
"C r.s i p p p p p p p i r C z.f.m c ;.x p Y :.u.o.O o O O * l.s ",
"C r.d i p p p p p p r s s.z.p.w e.a.q p.N 2.j.; o $ O O O * g.a ",
"C w.d i p p p p y t =.z.T G t.w w.%.w z.l.7 o O O $ $ O O * l.a ",
"C w.d i p p y e G z.y.r +.a Z q.N K z.| o O O O O $ O O $ * l.a ",
"C r.d i p r x s.z.z.z.x v z.a I z.i.* O O O $ O O O O O O * l.a ",
"C w.d y y :.z.z.q S y.z.n v z.z.5 o O O O O O O $ O O $ O & l.a ",
"V w.y H z.z.z.z.a B t i z.z.( o O O O O O $ O $ O O O O O - g.k ",
"I T z.z.z.z.z.z.O.a z.z.8.O o O O O O $ O $ O O O O O O O ` L U ",
"z.w z.z.z.z.z.z.s.d.z.> o O O O O O O O O O O O $ O O o : 3.r z.",
"z.y.w w.z.z.z.z.z./ o O O O O $ $ O O O O O O O O o O 9 R y z.z.",
"z.z.z.l b f.z. .O o O O O O O O O O O O O O O O $ 9 &.u O.z.z.z.",
"z.z.z.z.r.z k >.' = O O O O O O O O O O O O 4 o.E u P z.z.z.z.z.",
"z.z.z.z.z.z.k.K u J 4.9 $ O O O O O O $ ' 0.D h *.z.z.z.z.z.z.z.",
"z.z.z.z.z.z.z.z.z.9.M j -...% O O % ) -.g A a.z.z.z.z.z.z.z.z.z.",
"z.z.z.z.z.z.z.z.z.z.z.z.@.u E 0 _ W u +.z.z.z.z.z.z.z.z.z.z.z.z.",
"z.z.z.z.z.z.z.z.z.z.z.z.z.z.#.u h P z.z.z.z.z.z.z.z.z.z.z.z.z.z.",
"z.z.z.z.z.z.z.z.z.z.z.z.z.z.z.k.w.z.z.z.z.z.z.z.z.z.z.z.z.z.z.z."
};
