/* XPM */
static char *result[] = {
/* columns rows colors chars-per-pixel */
"64 64 171 2 ",
"   c #000E7B",
".  c #00147E",
"X  c #B98C01",
"o  c #BC920E",
"O  c #BC9315",
"+  c #BE961C",
"@  c #BF9822",
"#  c #F9B700",
"$  c #FABF00",
"%  c #FABF0B",
"&  c #C09A25",
"*  c #C29D2C",
"=  c #C49F31",
"-  c #C5A135",
";  c #C7A43D",
":  c #FAC009",
">  c #FAC317",
",  c #FCC41E",
"<  c #FBC625",
"1  c #FFCA27",
"2  c #FAC62B",
"3  c #FCC92C",
"4  c #FECC34",
"5  c #FBCC3D",
"6  c #CBAB47",
"7  c #CCAD51",
"8  c #CFB158",
"9  c #D1B455",
"0  c #D1B45F",
"q  c #D3B866",
"w  c #D7BE73",
"e  c #FACC41",
"r  c #FBD252",
"t  c #FFD85B",
"y  c #D8C077",
"u  c #DAC37D",
"i  c #FDD663",
"p  c #FFDB64",
"a  c #FBDA74",
"s  c #FCDA7A",
"d  c #001E83",
"f  c #002386",
"g  c #002788",
"h  c #002D8B",
"j  c #00328D",
"k  c #003690",
"l  c #003C93",
"z  c #014296",
"x  c #004799",
"c  c #0A4798",
"v  c #0C4A9B",
"b  c #124C9C",
"n  c #194E9D",
"m  c #14519E",
"M  c #1C539F",
"N  c #20529E",
"B  c #1C54A1",
"V  c #2256A1",
"C  c #2459A3",
"Z  c #2A5EA5",
"A  c #2C60A7",
"S  c #2C62A9",
"D  c #3262A7",
"F  c #3264AA",
"G  c #3866AB",
"H  c #366AAC",
"J  c #3B6BAD",
"K  c #426BAE",
"L  c #4470AF",
"P  c #4472B1",
"I  c #4B75B3",
"U  c #4F7AB5",
"Y  c #4373B8",
"T  c #5677B2",
"R  c #537CB6",
"E  c #597FB7",
"W  c #577EB8",
"Q  c #5781B9",
"!  c #5D83BA",
"~  c #6285BB",
"^  c #6A85BB",
"/  c #658ABE",
"(  c #6A8CBE",
")  c #708EBF",
"_  c #5A85C3",
"`  c #6C8FC1",
"'  c #668DC9",
"]  c #6E91C2",
"[  c #7494C3",
"{  c #7895C7",
"}  c #7B99C6",
"|  c #7E9BCA",
" . c #DCC785",
".. c #FCDE84",
"X. c #E0CE95",
"o. c #E2D19D",
"O. c #FFE78A",
"+. c #FDE295",
"@. c #E8DBB4",
"#. c #EBDEB9",
"$. c #FCE7A5",
"%. c #FDE7AA",
"&. c #ECE0B8",
"*. c #FDEBB6",
"=. c #FFF2B3",
"-. c #FFF5BD",
";. c #FFFABB",
":. c #829EC9",
">. c #8A9CC8",
",. c #819DD0",
"<. c #86A1CB",
"1. c #8BA5CD",
"2. c #91A7CD",
"3. c #85A2D4",
"4. c #84A4DB",
"5. c #96ACD1",
"6. c #99AED2",
"7. c #9DB2D4",
"8. c #9EB4DE",
"9. c #A2B6D6",
"0. c #A9B8D7",
"q. c #A7BAD9",
"w. c #ACBCDA",
"e. c #B1BFDB",
"r. c #AEC0DB",
"t. c #B2C1DD",
"y. c #BAC5DF",
"u. c #BAC7E0",
"i. c #BCCAE1",
"p. c #B2C5E8",
"a. c #BDCFF2",
"s. c #EFE4C3",
"d. c #FEEFC8",
"f. c #F2EAD2",
"g. c #F3EDDC",
"h. c #FDF2D5",
"j. c #FFFFD5",
"k. c #FEF5DF",
"l. c #FFFCD8",
"z. c #C2CDE3",
"x. c #C5D0E4",
"c. c #CDD6E7",
"v. c #C4D1EF",
"b. c #CFD7E9",
"n. c #CED8E9",
"m. c #D0D7E8",
"M. c #D3DBEA",
"N. c #D9DFED",
"B. c #C7D3F4",
"V. c #D1DAF0",
"C. c #D9E0EE",
"Z. c #D7E3FF",
"A. c #E1E4EF",
"S. c #F6F1E4",
"D. c #FEF5E3",
"F. c #FFFFE2",
"G. c #F9F5EB",
"H. c #FFFDED",
"J. c #E3E6F1",
"K. c #E5E9F2",
"L. c #EBECF3",
"P. c #EFF2F7",
"I. c #ECF3FD",
"U. c #EEF9FF",
"Y. c #F2F2F7",
"T. c #FAF6F0",
"R. c #FDFBF3",
"E. c #F5F5FA",
"W. c #F8F6FA",
"Q. c #F4FAFE",
"!. c #FFFFFF",
/* pixels */
"!.!.!.!.!.!.!.!.!.!.!.!.!.!.!.!.!.!.!.!.!.g.!.!.!.!.!.!.!.!.!.!.!.!.!.!.!.!.!.!.!.!.!.T.!.!.!.!.!.!.!.!.!.!.!.!.!.!.!.!.!.!.!.!.",
"!.!.!.!.!.!.!.!.!.!.!.!.!.!.!.!.!.!.!.!.#.X !.!.!.!.!.!.!.!.!.!.!.!.!.!.!.!.!.!.!.!.9 7 !.!.!.!.!.!.!.!.!.!.!.!.!.!.!.!.!.!.!.!.",
"!.!.!.!.!.!.!.!.!.!.!.!.!.!.!.!.!.!.!.!.+ * 9 !.!.!.!.!.!.!.!.!.!.!.!.!.!.!.!.!.!.s.+ + @.!.!.!.!.!.!.!.!.!.!.!.!.!.!.!.!.!.!.!.",
"!.!.!.!.!.!.!.!.!.!.!.!.!.!.!.!.!.R.S.7 * - + o.S.!.!.!.!.!.!.!.!.!.!.!.!.!.!.G.g.+ - - + f.G.!.!.!.!.!.!.!.!.!.!.!.!.!.!.!.!.!.",
"!.!.!.!.!.!.!.!.!.!.!.!.!.!.f.+ + + + = - - - & + + O 6 !.!.!.!.!.!.!.!.X.O O + @ - - - - & + + o  .!.!.!.!.!.!.!.!.!.!.!.!.!.!.",
"!.!.!.!.!.!.!.!.!.!.!.!.!.!.!.!.7 @ - - - - - - - O X.!.!.!.!.!.!.!.!.!.!.g.& * - - - - - - * @ f.!.!.!.!.!.!.!.!.!.!.!.!.!.!.!.",
"!.!.!.!.!.!.!.!.!.!.!.!.!.!.!.!.!.o.& - - - - - * S.!.!.!.!.!.!.!.!.!.!.!.!.!.8 * - - - - * 7 !.!.!.!.!.!.!.!.!.!.!.!.!.!.!.!.!.",
"!.!.!.!.!.!.!.!.!.!.!.!.!.!.!.!.!.&.& - - * = - + !.!.!.!.!.!.!.!.!.!.!.!.!.!.w * - - * - * q !.!.!.!.!.!.!.!.!.!.!.!.!.!.!.!.!.",
"!.!.!.!.!.!.!.!.!.!.!.!.!.!.!.!.!.y @ + ;  .+ & + f.!.!.!.!.!.!.!.!.!.!.!.!.!.@ @ O 0 q O @ + !.!.!.!.!.!.!.!.!.!.!.!.!.!.!.!.!.",
"!.!.!.!.!.!.!.!.!.!.!.!.!.!.!.!.!.& w S.!.!.!.#.6 u !.!.!.!.!.!.!.!.!.!.!.!.T.o o.!.!.!.!.o.+ g.!.!.!.!.!.!.!.!.!.!.!.!.!.!.!.!.",
"!.!.!.!.!.!.!.!.!.!.!.!.!.!.!.!.!.!.!.!.!.!.!.!.!.!.!.!.!.!.A.R B z.!.!.!.!.R.!.!.!.!.!.!.!.!.R.!.!.!.!.!.!.!.!.!.!.!.!.!.!.!.!.",
"!.!.!.!.!.!.!.!.!.!.!.!.!.!.!.!.!.!.!.!.!.!.!.!.!.!.!.!.w.B d h x f z 7.!.!.!.!.!.!.!.!.!.!.!.!.!.!.!.!.!.!.!.!.!.!.!.!.!.!.!.!.",
"!.!.!.!.!.!.!.!.!.!.!.!.!.!.!.!.!.!.!.!.!.!.!.!.!.W.[ j f z 6.!.!.e.b f j ` Y.!.!.!.!.!.!.!.!.!.!.!.!.!.!.!.!.!.!.!.!.!.!.!.!.!.",
"!.!.!.!.!.!.!.!.!.!.!.!.!.!.!.!.!.!.!.!.!.!.!.0.Z f f J M.!.!.~ >.!.!.N.P f f Z 9.!.!.!.!.!.!.!.!.!.!.!.!.!.!.!.!.!.!.!.!.!.!.!.",
"w.b 9.W.!.!.!.!.!.!.!.!.!.!.!.!.!.!.W.z.} B g f c <.!.!.C.H j l l l <.!.!.!.1.c f f B } x.!.!.!.!.!.!.!.!.!.!.!.!.!.!.!.!.M.L K ",
"u.j j f l H ( 1.7.r.t.r.7.1.[ P C j f f h S 1.W.!.!.9.m j z z x x x l h R M.!.!.W.1.A h d g j A Q <.7.z.b.N.N.M.x.7.| J j f l R ",
"y.j E t.! C z h d d d d d h l m P ] t.W.!.!.!.5.S j l z x x x x x x x x z j l / z.!.!.!.Y.r.] H c j d d d f d d d d j B ` 5.j Q ",
"y.j ~ !.!.!.!.!.!.!.!.!.!.!.!.!.!.!.K.9.W z j l z x x x x x x x x x x x x x z l k h B ~ 7.M.!.!.!.!.!.!.Y.A.A.L.R.!.!.!.!.M.h W ",
"y.j ~ !.M b S R / [ } } [ ( U A c h j l l x z x x x x x x x x x x x x x x x x x x x z z l j h   T !.!.!.!.!.!.!.!.!.!.!.!.c.j W ",
"y.h ! !.D l z l z l l z l l z z z x x x x x x x x x x x x x x x x x x x x x x x x x x x x j M K.!.!.!.!.!.!.!.!.!.!.!.!.!.b.h W ",
"y.h ! !.D z x x x x x x x x x x x x x x x x x x x x x x x x x x x x x x x x x x x x z l k q.!.!.!.!.!.!.!.!.!.!.!.!.!.!.!.c.h W ",
"y.j ! !.D z x x x x x x x x x x x x x x x x x x x x x x x x x x x x x x x x x x x z h ( !.!.!.!.!.!.!.!.!.!.!.!.!.!.!.!.!.c.j W ",
"y.j ! !.D z x x x x x x x x x x x x x x x x x x x x x x x x x x x x x x x x x x h D P.!.!.!.!.!.!.!.!.!.!.!.!.!.!.!.!.!.!.c.h W ",
"y.j ! !.D z x x x x x x x x x x x x x x x x x x x x x x x x x x x x x x x x l l u.!.!.!.!.!.!.!.!.!.!.!.!.!.!.!.!.!.!.!.!.c.j W ",
"y.h ! !.D z x x x x x x x x x x x x x x x x x x x x x x x x x x x x x x z h } !.!.!.!.!.f B 7.!.!.!.!.!.!.!.!.!.!.!.!.!.!.c.h W ",
"y.j ! !.D z x x x x x x x x x x x x x x x x x x x x x x x x x x x x z h J !.!.!.!.!.!.!.D l k g P i.!.!.!.!.!.!.!.!.%.5 !.c.h W ",
"y.h ! !.D z x x x x x x x x x x x x x x x x x x x x x x x x x x x k z n.!.!.!.J.K.!.!.!.7.l m R f h l / n.!.!.!.R.< # 5 !.b.h W ",
"y.j ! !.D z x x x x x x x x x x x x x x x x x x x x x x x x x l j 1.!.!.!.!.~ d l !.!.!.!.g h !.!.} j c n.!.!.i # $ $ e !.b.h W ",
"y.j ! !.D z x x x x x x x x x x x x x x x x x x x x x x x z h I !.!.!.!.:.j j 2.!.N.!.!.!.C l [ !.!.!.!.!.%.# # $ : # 5 !.c.h W ",
"y.j ! !.D z x x x x x x x x x x x x x x x x x x x x x x j m C.!.!.!.!.!.e.g z Z ! . ^ !.!.1.h h !.!.!.D.> # $ : : : # e !.c.j W ",
"y.j ! !.D z z x x x x x x x x x x x x x x x x x x x l j 7.!.!.!.E.0.7.t.!.J.h z j 1.!.m.9.W.G !.!.!.r # $ $ $ : $ $ $ e !.c.h W ",
"y.h ! !.D z x x x x x x x x x x x x x x x x x x x h ! !.!.!.W.S h g g j h 2.W.j z v E d n !.!.!.+.# $ $ $ : $ $ $ : $ e !.c.j W ",
"y.h ! !.D z x x x x x x x x x x x x x x x x z j C K.!.!.!.!.j k C r.i.I l g i.!.j j l i.!.!.h.% # $ $ $ : $ $ $ : $ $ e !.c.h W ",
"y.j ! !.D z x x x x x x x x x x x x x x z l l t.!.!.!.!.!.I l B !.!.!.!.c l R !.Y.{ !.!.!.e # $ $ $ $ $ $ $ : $ : $ $ e !.c.h W ",
"y.j ! !.D z x x x x x x x x x x x x x z h ] !.!.!.J.~ !.!.C l S !.!.!.W.j j 9.!.!.!.!...$ $ $ $ $ $ $ $ $ : $ : $ $ $ e !.b.h W ",
"y.j ! !.D z x x x x x x x x x x x x h S W.!.!.!.E f j G !.6.g l A <.! j j D !.!.!.d.$ $ $ $ $ $ $ $ $ $ $ : $ $ $ : $ 5 !.b.h W ",
"y.h ! !.D z x x x x x x x x x z k l z.!.!.!.<.j h F k l V !.7.k h g g l 2.!.!.!.3 # $ $ $ $ $ : $ $ $ : $ $ : $ $ $ $ 5 !.c.h W ",
"y.j ! !.D z x x x x x x x x l j :.!.!.!.!.j j l t.!.A.h l b !.!.L.n.W.!.!.!.a # $ $ $ $ : : $ $ : $ $ : $ : $ $ $ $ $ e !.c.h W ",
"y.h ! !.D z x x x x x x z j J !.!.!.!.!.!.!.l l z !.!.Y.j l l Y.!.!.!.!.*.# $ $ $ : $ : $ $ : $ $ $ $ $ $ $ : : $ $ # e !.b.j W ",
"y.j ! !.D z x x x x z l v M.!.!.!.!.!.!.!.!.!.z l j Y.!.!.j C J.!.!.G.< # $ $ $ $ : $ $ $ : $ $ $ : : $ : $ $ $ $ $ $ e !.n.h W ",
"y.j ! !.D z x x x l j 5.!.!.!.i.f m 5.!.!.!.!.!.b l j m.!.!.!.!.!.i # # $ $ : : $ $ $ : $ $ : : $ $ $ : $ : : $ $ : $ e !.c.h W ",
"y.j ! !.D z x z h R !.!.!.!.!.W.g x j h R M.!.!.!.V h 1.!.!.!.$.$ $ $ $ : $ $ $ $ : $ $ : $ $ $ : : $ $ $ $ $ $ $ $ $ 5 !.c.h W ",
"y.j ! !.D z j M J.!.!.!.!.!.!.!.V l [ U k h c :.Y.!.!.!.!.k., # $ $ $ $ : $ $ $ : $ : $ : $ $ $ $ $ : $ : $ $ : : : $ 5 !.z.j W ",
"y.h R !.C j 0.!.!.!.!.!.!.!.!.!.2.k J Z C Q f Z C.!.!.!.r # $ $ $ $ $ $ $ $ : : $ $ : $ $ $ : $ $ : $ $ : $ $ $ $ $ # s !.5.j >.",
"P.g N !.>.!.!.!.!.!.!.!.!.!.!.!.!.g k 5.!.!.!.!.!.!.+.# $ $ $ : $ $ : $ $ : $ $ $ : $ $ : $ $ : $ $ : $ $ $ $ $ $ $ # k.!.n g C.",
"!.l g !.!.!.!.!.!.!.!.!.!.!.!.!.!.Z h ( !.!.!.!.h.% # $ $ : $ $ $ : $ $ $ $ : $ $ $ : $ : $ $ : : $ : $ $ $ $ $ $ $ 2 !.y.h M !.",
"!.7.h A !.!.!.!.!.!.!.!.!.!.!.!.!.2.Q !.!.!.!.e # $ $ $ $ $ : $ $ $ : : : : $ $ : : $ $ $ $ $ $ $ : $ $ $ $ $ $ # # !.!.j g Y.!.",
"!.!.C h ) !.!.!.!.!.!.!.!.!.!.!.!.!.!.!.!...# $ : $ $ $ $ $ $ $ : $ $ $ $ $ $ : $ $ $ : $ : : $ $ $ $ : $ $ $ $ $ R.E.l f y.!.!.",
"!.!.!.b g ! !.!.!.!.!.!.!.!.!.!.!.!.!.d.% # $ $ $ $ : $ $ $ : : $ : : $ : $ $ $ $ : : $ $ $ $ $ : : $ $ $ $ # , !.p.h g u.!.!.!.",
"!.!.!.!.F f m Y.!.!.!.!.!.!.!.!.!.W.4 # $ $ $ : : $ : $ : $ $ $ $ $ $ $ $ $ : : $ $ $ $ $ $ $ $ $ $ $ $ $ $ $.!.P f l J.!.!.!.!.",
"!.!.!.!.!.2.g f / !.!.!.!.!.!.!.s # $ $ $ $ $ $ $ : $ $ : $ $ $ : $ $ : $ : $ $ : $ $ $ $ $ $ $ $ $ $ $ O.!.,.h g ! !.!.!.!.!.!.",
"!.!.!.!.!.!.!.L f h [ !.!.!.*.# # $ $ $ $ : : $ $ $ $ : $ $ : : : $ $ : $ $ : $ : $ $ $ $ $ $ $ # 3 -.!.4.k f A L.!.!.!.!.!.!.!.",
"!.!.!.!.!.!.!.!.J.J f g R J.!.-.4 # # $ $ $ : : : $ $ $ $ $ $ $ $ $ $ : $ $ $ $ $ $ $ $ $ # % O.!.Q.' h f Z M.!.!.!.!.!.!.!.!.!.",
"!.!.!.!.!.!.!.!.!.!.Y.! g f v 8.!.!.O.% # $ $ : : $ $ $ $ $ : $ $ : $ $ $ $ $ : $ $ # $ i F.!.a.F f f I L.!.!.!.!.!.!.!.!.!.!.!.",
"!.!.!.!.!.!.!.!.!.!.!.!.!.5.b f g I B.!.F.t # # $ $ $ $ : : $ $ $ $ : $ $ $ $ $ # < *.!.!.| j f k | !.!.!.!.!.!.!.!.!.!.!.!.!.!.",
"!.!.!.!.!.!.!.!.!.!.!.!.!.!.!.L.` h f k [ I.!.=.< # $ $ $ $ $ : : $ : $ $ $ # e H.!.v.H f f F y.!.!.!.!.!.!.!.!.!.!.!.!.!.!.!.!.",
"!.!.!.!.!.!.!.!.!.!.!.!.!.!.!.!.!.!.u.P f f B 8.!.H.t # $ $ $ $ $ $ $ $ # 4 R.!.3.l f l } !.!.!.!.!.!.!.!.!.!.!.!.!.!.!.!.!.!.!.",
"!.!.!.!.!.!.!.!.!.!.!.!.!.!.!.!.!.!.!.!.!.5.b f g _ I.!.p # $ $ $ $ # 1 F.U.! g f Z y.!.!.!.!.!.!.!.!.!.!.!.!.!.!.!.!.!.!.!.!.!.",
"!.!.!.!.!.!.!.!.!.!.!.!.!.!.!.!.!.!.!.!.!.!.!.A.Q g f S Z.!.5 $ # 1 j.U.Y f g Q L.!.!.!.!.!.!.!.!.!.!.!.!.!.!.!.!.!.!.!.!.!.!.!.",
"!.!.!.!.!.!.!.!.!.!.!.!.!.!.!.!.!.!.!.!.!.!.!.!.!.!.:.h f S I.;.l.!._ f g ( !.!.!.!.!.!.!.!.!.!.!.!.!.!.!.!.!.!.!.!.!.!.!.!.!.!.",
"!.!.!.!.!.!.!.!.!.!.!.!.!.!.!.!.!.!.!.!.!.!.!.!.!.!.!.!.| g g :.V.j f I !.!.!.!.!.!.!.!.!.!.!.!.!.!.!.!.!.!.!.!.!.!.!.!.!.!.!.!.",
"!.!.!.!.!.!.!.!.!.!.!.!.!.!.!.!.!.!.!.!.!.!.!.!.!.!.!.!.!.!.A h j k M.!.!.!.!.!.!.!.!.!.!.!.!.!.!.!.!.!.!.!.!.!.!.!.!.!.!.!.!.!.",
"!.!.!.!.!.!.!.!.!.!.!.!.!.!.!.!.!.!.!.!.!.!.!.!.!.!.!.!.!.!.!.[ z !.!.!.!.!.!.!.!.!.!.!.!.!.!.!.!.!.!.!.!.!.!.!.!.!.!.!.!.!.!.!.",
"!.!.!.!.!.!.!.!.!.!.!.!.!.!.!.!.!.!.!.!.!.!.!.!.!.!.!.!.!.!.!.!.!.!.!.!.!.!.!.!.!.!.!.!.!.!.!.!.!.!.!.!.!.!.!.!.!.!.!.!.!.!.!.!."
};
