/* XPM */
static char *result[] = {
/* columns rows colors chars-per-pixel */
"16 16 152 2 ",
"   c #B68902",
".  c #B68A03",
"X  c #FAB500",
"o  c #F9B700",
"O  c #F9B800",
"+  c #FABB00",
"@  c #F9BC00",
"#  c #F9BD00",
"$  c #FABD00",
"%  c #FBBD00",
"&  c #F9BE00",
"*  c #FABE00",
"=  c #FABF00",
"-  c #FFBC00",
";  c #FDBE00",
":  c #FEBF00",
">  c #FFBF00",
",  c #C09924",
"<  c #C49F32",
"1  c #FFC000",
"2  c #FFC100",
"3  c #FFC200",
"4  c #FFC700",
"5  c #FFC800",
"6  c #FFCD05",
"7  c #FFCD1F",
"8  c #FFD731",
"9  c #FFD13E",
"0  c #8D967F",
"q  c #9D9E74",
"w  c #E3BF44",
"e  c #ECC541",
"r  c #F9D04F",
"t  c #FFE04E",
"y  c #DAC27D",
"u  c #FAD561",
"i  c #FFE471",
"p  c #FFE676",
"a  c #002E8B",
"s  c #002F8C",
"d  c #00308C",
"f  c #00358F",
"g  c #003A91",
"h  c #003B92",
"j  c #003C93",
"k  c #003D93",
"l  c #003E94",
"z  c #003F94",
"x  c #004094",
"c  c #004095",
"v  c #004196",
"b  c #004296",
"n  c #004496",
"m  c #004597",
"M  c #004598",
"N  c #004698",
"B  c #004799",
"V  c #034898",
"C  c #14519E",
"Z  c #2762A7",
"A  c #2A63A8",
"S  c #2F64A9",
"D  c #366DAE",
"F  c #3C71B0",
"G  c #4374B1",
"H  c #507EB7",
"J  c #517EB8",
"K  c #517FB8",
"L  c #5581B9",
"P  c #5883BA",
"I  c #5B85BB",
"U  c #5E88BC",
"Y  c #648ABE",
"T  c #658DBF",
"R  c #4F82CE",
"E  c #5A87C8",
"W  c #658DC0",
"Q  c #6A91C2",
"!  c #6E92C2",
"~  c #7597C5",
"^  c #7698C7",
"/  c #7196C9",
"(  c #7298CA",
")  c #7699CA",
"_  c #7D9FCA",
"`  c #6C96D4",
"'  c #6895DD",
"]  c #739AD3",
"[  c #749AD1",
"{  c #729CE1",
"}  c #749DE2",
"|  c #749FE6",
" . c #82969C",
".. c #E0CC92",
"X. c #E1CE95",
"o. c #E3D19D",
"O. c #FFFDB6",
"+. c #8AA7CE",
"@. c #80A3D1",
"#. c #87A5D0",
"$. c #8BA9D0",
"%. c #8EAAD2",
"&. c #90ACD1",
"*. c #91ACD2",
"=. c #9EB7DC",
"-. c #A0B8D8",
";. c #A1B9D8",
":. c #A7BDDA",
">. c #A0B9DC",
",. c #8CAEE3",
"<. c #87ACE8",
"1. c #8CAFE8",
"2. c #8CAFE9",
"3. c #88ADEE",
"4. c #9AB8E8",
"5. c #9DBDF8",
"6. c #B1C5DF",
"7. c #B4C6DF",
"8. c #B5C9E3",
"9. c #B9CAE3",
"0. c #BBCCE2",
"q. c #BBCDE3",
"w. c #BFD0E8",
"e. c #B3CDF8",
"r. c #C7D3DE",
"t. c #F5E8C4",
"y. c #F6EAC9",
"u. c #FFFFC7",
"i. c #FFF4D9",
"p. c #FFF6DE",
"a. c #C0D1E5",
"s. c #C7D6E8",
"d. c #C3D5ED",
"f. c #C4D4EC",
"g. c #C8D7EA",
"h. c #D4DEEC",
"j. c #DBE2EF",
"k. c #FFFFEA",
"l. c #E1E8F2",
"z. c #E6EBF4",
"x. c #E6ECF4",
"c. c #E1ECFF",
"v. c #EDF1F7",
"b. c #FFFFF3",
"n. c #FBFAF4",
"m. c #F9F9FC",
"M. c #F9FAFC",
"N. c #FEFDFC",
"B. c #FEFEFD",
"V. c #FCFFFF",
"C. c #FFFFFE",
"Z. c white",
/* pixels */
"Z.Z.Z.Z.Z...Z.Z.Z.Z.o.B.Z.Z.Z.Z.",
"Z.Z.Z.N.< . y Z.Z.X.  , n.Z.Z.Z.",
"Z.Z.Z.Z.y.p.k.w.8.b.i.t.Z.Z.Z.Z.",
":.l.M.v.f.>.#.K Q %.=.d.x.m.z.-.",
"^ I J P U F g l k j D G 7.;.a.Y ",
"*.x l l z v N B b s K Z.Z.Z.Z.~ ",
"&.V M B B B m f Z h.Z.C [ Z.p ] ",
"&.V M B N h b 6.s.S ( 3.u.$ 3 } ",
"&.V M c a _ j.H 9.R r.8 o # 4 } ",
"&.m d A Z.+.W E e.i - @ = * 4 } ",
"$.n 0.Z.h @.5.O.2 + & = = & 5 { ",
"T Z.Z.Z.2.b.7 O & = = = * > u ` ",
"Z.L g.C.t X # = = & % 1 6 q ' Z.",
"Z.Z.q.) 0 9 2 : ; 3 r  .| c.Z.Z.",
"Z.Z.Z.Z.V.<./ w e ! 1.Z.Z.Z.Z.Z.",
"Z.Z.Z.Z.Z.Z.Z.4.,.Z.Z.Z.Z.Z.Z.Z."
};
